<?xml version="1.0" encoding="utf-8"?>
<!-- Generator: Adobe Illustrator 25.2.1, SVG Export Plug-In . SVG Version: 6.00 Build 0)  -->
<svg version="1.1" id="Ebene_1" xmlns="http://www.w3.org/2000/svg" xmlns:xlink="http://www.w3.org/1999/xlink" x="0px" y="0px"
	 viewBox="0 0 80 80" style="enable-background:new 0 0 80 80;" xml:space="preserve">
<style type="text/css">
	.st0{clip-path:url(#SVGID_2_);}
	.st1{fill:#FFFFFF;stroke:#C6C5C5;stroke-width:1.5;stroke-linecap:round;stroke-miterlimit:10;}
	.st2{clip-path:url(#SVGID_4_);}
	.st3{fill:#0071BC;}
	.st4{fill:#FFFFFF;}
	.st5{fill:#C6C5C5;}
	.st6{clip-path:url(#SVGID_6_);}
	.st7{clip-path:url(#SVGID_8_);}
</style>
<path class="st4" d="M54.4,23.2c-3.2,0-5.9,2.6-5.9,5.9c0,3.2,2.6,5.9,5.9,5.9c3.2,0,5.9-2.6,5.9-5.9C60.3,25.8,57.7,23.2,54.4,23.2
	z"/>
<g>
	<path class="st4" d="M45.4,39.4c-1.2,1-2,2.1-2.2,3.3C44.3,42,45.1,40.8,45.4,39.4z"/>
	<path class="st4" d="M43.2,47.2c0,0.1,0.1,0.4,0.2,0.6h4.7c-1.4-0.8-3.1-1.5-5-1.8V47.2z"/>
	<path class="st4" d="M66,43.2c0-3.6-5.2-6.5-11.4-6.5c-2.9,0-5.5,0.6-7.5,1.7c-0.1,2.6-1.6,4.9-3.7,6.1c3.1,0.5,5.7,1.7,7.4,3.3H66
		c0-0.2,0.1-0.4,0.1-0.6L66,43.2z"/>
</g>
<g>
	<path class="st4" d="M39.7,32.2c-3.2,0-5.9,2.6-5.9,5.9c0,3.2,2.6,5.9,5.9,5.9c3.2,0,5.9-2.6,5.9-5.9C45.6,34.8,43,32.2,39.7,32.2z
		"/>
	<path class="st4" d="M39.9,45.7c-6.2,0-11.4,3-11.4,6.5v4c0,0.1,0.1,0.4,0.2,0.6h22.5c0-0.2,0.1-0.4,0.1-0.6l0-4
		C51.3,48.7,46.1,45.7,39.9,45.7z"/>
</g>
<path class="st4" d="M25.2,23.2c-3.2,0-5.9,2.6-5.9,5.9c0,3.2,2.6,5.9,5.9,5.9c3.2,0,5.9-2.6,5.9-5.9C31,25.8,28.4,23.2,25.2,23.2z"
	/>
<g>
	<path class="st4" d="M36.7,47.8c0-0.2,0.1-0.4,0.1-0.6l0-1.2c-2,0.3-3.7,1-5.1,1.8H36.7z"/>
	<path class="st4" d="M36.8,43.2c0-1.6-1.1-3.1-2.9-4.2C34.2,40.8,35.3,42.3,36.8,43.2z"/>
	<path class="st4" d="M36.2,44.5c-2.3-1.3-3.8-3.7-3.8-6.4c-1.9-0.9-4.4-1.4-7-1.4c-6.2,0-11.4,3-11.4,6.5v4c0,0.1,0.1,0.4,0.2,0.6
		h14.9C30.8,46.3,33.2,45.1,36.2,44.5z"/>
</g>
</svg>
