<svg id="Badewanne" xmlns="http://www.w3.org/2000/svg" viewBox="0 0 100 100"><defs><style>.cls-1,.cls-2{fill:none;stroke:#fff;stroke-linecap:round;stroke-width:3px;}.cls-1{stroke-miterlimit:10;}.cls-2{stroke-linejoin:round;}</style></defs><rect class="cls-1" x="8.15" y="52.4" width="83.5" height="6.56" rx="3.28"/><path class="cls-1" d="M9.73,58.86H89.09a0,0,0,0,1,0,0V70.19a20.3,20.3,0,0,1-20.3,20.3H30a20.3,20.3,0,0,1-20.3-20.3V58.86A0,0,0,0,1,9.73,58.86Z"/><path class="cls-1" d="M83.39,64.65v2.42a17.08,17.08,0,0,1-17,17H63.89"/><rect class="cls-2" x="23.96" y="90.49" width="6.71" height="5.97"/><rect class="cls-2" x="68.16" y="90.49" width="6.71" height="5.97"/><path class="cls-2" d="M63.12,52.11a8.41,8.41,0,0,0-12-10.69,11.11,11.11,0,0,0-22,2.35c0,.13,0,.27,0,.4a8.42,8.42,0,0,0-15.19,7.22"/><path class="cls-1" d="M73.45,17h12.3a6.68,6.68,0,0,1,6.68,6.68V25a0,0,0,0,1,0,0H66.77a0,0,0,0,1,0,0V23.68A6.68,6.68,0,0,1,73.45,17Z"/><path class="cls-1" d="M77.13,3.75h4.93a1.8,1.8,0,0,1,1.8,1.8v5a0,0,0,0,1,0,0H75.34a0,0,0,0,1,0,0v-5A1.8,1.8,0,0,1,77.13,3.75Z"/><rect class="cls-1" x="71.95" y="10.56" width="15.31" height="6.44"/><line class="cls-1" x1="66.77" y1="30.61" x2="66.77" y2="38.09"/><line class="cls-1" x1="79.6" y1="30.61" x2="79.6" y2="36.84"/><line class="cls-1" x1="92.22" y1="31.23" x2="92.22" y2="37.47"/><line class="cls-1" x1="92.22" y1="43.56" x2="92.22" y2="45.96"/><line class="cls-1" x1="85.82" y1="38.81" x2="85.82" y2="41.21"/><line class="cls-1" x1="85.82" y1="30.87" x2="85.82" y2="33.28"/><line class="cls-1" x1="73.07" y1="30.61" x2="73.07" y2="33.01"/><line class="cls-1" x1="73.07" y1="38.81" x2="73.07" y2="41.21"/><line class="cls-1" x1="79.6" y1="43.47" x2="79.6" y2="45.87"/></svg>