<svg xmlns="http://www.w3.org/2000/svg" viewBox="0 0 100 100"><defs><style>.cls-1,.cls-2{fill:none;stroke:#fff;stroke-linecap:round;stroke-width:3px;}.cls-1{stroke-linejoin:round;}.cls-2{stroke-miterlimit:10;}</style></defs><g id="Toilette"><path class="cls-1" d="M29.16,96.35H62.61L58.34,78.2H71.86s17.21-3.79,17.21-20.76H24.89V74.17s.35,4.15,6.05,4.15Z"/><rect class="cls-2" x="10.45" y="50.05" width="82.7" height="7.39" rx="3.69"/><path class="cls-1" d="M8.63,11.75H38.07a0,0,0,0,1,0,0V45.24a4.82,4.82,0,0,1-4.82,4.82H13.44a4.82,4.82,0,0,1-4.82-4.82V11.75A0,0,0,0,1,8.63,11.75Z"/><rect class="cls-1" x="6.85" y="3.65" width="32.99" height="8.1" rx="4.05"/><polyline class="cls-1" points="43.35 50.05 43.35 8.88 39.67 8.88"/><path class="cls-2" d="M43.35,46.11H83.73s2.67.22,2.67,3.94"/></g></svg>