<?xml version="1.0" encoding="utf-8"?>
<!-- Generator: Adobe Illustrator 25.2.1, SVG Export Plug-In . SVG Version: 6.00 Build 0)  -->
<svg version="1.1" id="Ebene_1" xmlns="http://www.w3.org/2000/svg" xmlns:xlink="http://www.w3.org/1999/xlink" x="0px" y="0px"
	 viewBox="0 0 80 80" style="enable-background:new 0 0 80 80;" xml:space="preserve">
<style type="text/css">
	.st0{clip-path:url(#SVGID_2_);}
	.st1{fill:#FFFFFF;stroke:#C6C5C5;stroke-width:1.5;stroke-linecap:round;stroke-miterlimit:10;}
	.st2{clip-path:url(#SVGID_4_);}
	.st3{fill:#0071BC;}
	.st4{fill:#FFFFFF;}
	.st5{fill:#C6C5C5;}
	.st6{clip-path:url(#SVGID_6_);}
	.st7{clip-path:url(#SVGID_8_);}
</style>
<g>
	<path class="st4" d="M32.3,31.2c-3.2,0-5.9,2.6-5.9,5.9c0,3.2,2.6,5.9,5.9,5.9c3.2,0,5.9-2.6,5.9-5.9
		C38.2,33.8,35.5,31.2,32.3,31.2z"/>
	<path class="st4" d="M32.5,44.7c-6.2,0-11.4,3-11.4,6.5v4c0,0.1,0.1,0.4,0.2,0.6h22.5c0-0.2,0.1-0.4,0.1-0.6l0-4
		C43.9,47.7,38.7,44.7,32.5,44.7z"/>
</g>
<g>
	<path class="st4" d="M61.8,31.2c-3.2,0-5.9,2.6-5.9,5.9c0,3.2,2.6,5.9,5.9,5.9c3.2,0,5.9-2.6,5.9-5.9
		C67.7,33.8,65.1,31.2,61.8,31.2z"/>
	<path class="st4" d="M62.1,44.7c-6.2,0-11.4,3-11.4,6.5v4c0,0.1,0.1,0.4,0.2,0.6h22.5c0-0.2,0.1-0.4,0.1-0.6l0-4
		C73.5,47.7,68.2,44.7,62.1,44.7z"/>
</g>
<path class="st4" d="M17.7,22.2c-3.2,0-5.9,2.6-5.9,5.9c0,3.2,2.6,5.9,5.9,5.9c3.2,0,5.9-2.6,5.9-5.9C23.6,24.8,21,22.2,17.7,22.2z"
	/>
<path class="st4" d="M47.3,22.2c-3.2,0-5.9,2.6-5.9,5.9c0,3.2,2.6,5.9,5.9,5.9c3.2,0,5.9-2.6,5.9-5.9C53.2,24.8,50.5,22.2,47.3,22.2
	z"/>
<g>
	<path class="st4" d="M58.9,42.2c0-1.6-1.1-3.1-2.9-4.2C56.3,39.8,57.4,41.3,58.9,42.2z"/>
	<path class="st4" d="M58.8,46.8c0-0.2,0.1-0.4,0.1-0.6l0-1.2c-2,0.3-3.7,1-5.1,1.8H58.8z"/>
</g>
<g>
	<path class="st4" d="M36.1,46.2c0,0.1,0.1,0.4,0.2,0.6h4.4c-1.3-0.8-2.9-1.4-4.7-1.7V46.2z"/>
	<path class="st4" d="M54.5,37.1c-1.9-0.9-4.4-1.4-7-1.4c-3,0-5.8,0.7-7.9,1.9c-0.2,2.5-1.5,4.6-3.5,5.8v0.1c3,0.5,5.6,1.7,7.2,3.3
		h7.9c1.6-1.6,4.1-2.7,7-3.3C56,42.3,54.5,39.9,54.5,37.1z"/>
	<path class="st4" d="M37.9,38.7c-0.9,0.8-1.5,1.7-1.8,2.7C37,40.8,37.6,39.8,37.9,38.7z"/>
</g>
<g>
	<path class="st4" d="M29.3,46.8c0-0.2,0.1-0.4,0.1-0.6l0-1.2c-2,0.3-3.7,1-5.1,1.8H29.3z"/>
	<path class="st4" d="M29.3,42.2c0-1.6-1.1-3.1-2.9-4.2C26.8,39.8,27.8,41.3,29.3,42.2z"/>
	<path class="st4" d="M28.7,43.5c-2.3-1.3-3.8-3.7-3.8-6.4c-1.9-0.9-4.4-1.4-7-1.4c-6.2,0-11.4,3-11.4,6.5v4c0,0.1,0.1,0.4,0.2,0.6
		h14.9C23.3,45.3,25.8,44.1,28.7,43.5z"/>
</g>
</svg>
