<svg xmlns="http://www.w3.org/2000/svg" viewBox="0 0 100 100"><defs><style>.cls-1{fill:none;stroke:#fff;stroke-linecap:round;stroke-linejoin:round;stroke-width:3px;}</style></defs><g id="Küche"><rect class="cls-1" x="68.36" y="22.06" width="28.77" height="74.34"/><rect class="cls-1" x="3.73" y="60.77" width="64.63" height="35.63"/><line class="cls-1" x1="3.73" y1="70.36" x2="67.65" y2="70.36"/><line class="cls-1" x1="36.04" y1="60.77" x2="36.04" y2="95.1"/><line class="cls-1" x1="52.26" y1="96.4" x2="52.26" y2="70.36"/><rect class="cls-1" x="10.12" y="76.87" width="19.53" height="13.38"/><rect class="cls-1" x="13.55" y="3" width="13.26" height="15.74"/><line class="cls-1" x1="45.75" y1="3" x2="45.75" y2="33.19"/><line class="cls-1" x1="57.05" y1="3" x2="57.05" y2="20.16"/><path class="cls-1" d="M45.75,34.25h0a5.5,5.5,0,0,1,5.5,5.5v.53a0,0,0,0,1,0,0h-11a0,0,0,0,1,0,0v-.53a5.5,5.5,0,0,1,5.5-5.5Z"/><path class="cls-1" d="M57.05,21.4h0a5.5,5.5,0,0,1,5.5,5.5v.53a0,0,0,0,1,0,0h-11a0,0,0,0,1,0,0V26.9A5.5,5.5,0,0,1,57.05,21.4Z"/><path class="cls-1" d="M14.58,18.74H25.78A11.71,11.71,0,0,1,37.49,30.45v0a0,0,0,0,1,0,0H2.87a0,0,0,0,1,0,0v0A11.71,11.71,0,0,1,14.58,18.74Z"/><line class="cls-1" x1="68.36" y1="44.59" x2="97.13" y2="44.59"/><line class="cls-1" x1="74.82" y1="30.45" x2="74.82" y2="35.58"/><line class="cls-1" x1="74.82" y1="53.6" x2="74.82" y2="58.73"/><line class="cls-1" x1="58.73" y1="80.91" x2="58.73" y2="86.04"/><line class="cls-1" x1="54.82" y1="65.7" x2="49.7" y2="65.7"/><line class="cls-1" x1="45.84" y1="80.91" x2="45.84" y2="86.04"/><line class="cls-1" x1="19.88" y1="54.1" x2="19.88" y2="59.23"/><polyline class="cls-1" points="10.12 59.23 10.12 54.1 14.44 54.1"/><polyline class="cls-1" points="29.65 59.23 29.65 54.1 25.33 54.1"/><circle class="cls-1" cx="10.32" cy="65.7" r="0.55"/><circle class="cls-1" cx="16.91" cy="65.7" r="0.55"/><circle class="cls-1" cx="23.27" cy="65.7" r="0.55"/><circle class="cls-1" cx="29.86" cy="65.7" r="0.55"/></g></svg>