<svg xmlns="http://www.w3.org/2000/svg" viewBox="0 0 100 100"><defs><style>.cls-1{fill:none;stroke:#fff;stroke-linecap:round;stroke-miterlimit:10;stroke-width:3px;}</style></defs><g id="Waschmaschine"><rect class="cls-1" x="10" y="3" width="80" height="94" rx="11.88"/><line class="cls-1" x1="10.65" y1="25.8" x2="89.24" y2="25.8"/><line class="cls-1" x1="10.65" y1="87.35" x2="71.2" y2="87.35"/><line class="cls-1" x1="76.74" y1="87.35" x2="89.24" y2="87.35"/><rect class="cls-1" x="57.9" y="9.73" width="21.21" height="9.8" rx="2.09"/><circle class="cls-1" cx="40.93" cy="14.63" r="4.9"/><circle class="cls-1" cx="24.64" cy="14.63" r="4.9"/><circle class="cls-1" cx="49.94" cy="56.54" r="25.28"/><circle class="cls-1" cx="49.94" cy="56.54" r="17.58" transform="matrix(1, -0.07, 0.07, 1, -3.88, 3.68)"/><path class="cls-1" d="M67.5,57.47a7.23,7.23,0,0,0-4.33-.93c-2.86.37-3.32,2.57-5.75,2.87-3.16.4-4.14-3.1-7.48-2.87-2.89.19-3.24,2.88-6,2.87s-3.66-2.79-6.51-2.87c-2-.07-3.71,1.25-4.89,2.46"/></g></svg>